<svg xmlns="http://www.w3.org/2000/svg" version="1.1" xmlns:xlink="http://www.w3.org/1999/xlink" xmlns:svgjs="http://svgjs.dev/svgjs" width="512" height="512"><svg width="512" height="512" xmlns="http://www.w3.org/2000/svg" xmlns:svg="http://www.w3.org/2000/svg" clip-rule="evenodd" fill-rule="evenodd" version="1.1" viewBox="250 200 512 512">
 <g class="layer">
  <title>Layer 1</title>
  <g id="SvgjsG1404">
   <path d="m634.5,230.5c5.67,0 11.33,0 17,0c0,5.67 0,11.33 0,17c-5.67,0 -11.33,0 -17,0c0,-5.67 0,-11.33 0,-17z" fill="#314d70" id="SvgjsPath1403"></path>
  </g>
  <g id="SvgjsG1402">
   <path d="m623.5,249.5c1.68,-0.22 2.68,0.45 3,2c-12.67,0 -25.33,0 -38,0c-20.67,0 -41.33,0 -62,0c-46,0 -92,0 -138,0c0.31,3.54 -0.02,6.88 -1,10c0,-3.67 0,-7.33 0,-11c78.5,-1 157.16,-1.33 236,-1z" fill="#3d5570" id="SvgjsPath1401"></path>
  </g>
  <g id="SvgjsG1400">
   <path d="m526.5,251.5c1.54,1.41 3.21,1.75 5,1c1.22,1.27 2.56,2.43 4,3.5c-3.21,0.89 -3.21,2.55 0,5c-1.94,0.12 -3.27,0.95 -4,2.5c-36.17,-0.33 -72.17,0 -108,1c-0.33,0 -0.67,0 -1,0c-11.67,0 -23.33,0 -35,0c0,-1 0,-2 0,-3c0.98,-3.12 1.31,-6.46 1,-10c46,0 92,0 138,0z" fill="#344a66" id="SvgjsPath1399"></path>
  </g>
  <g id="SvgjsG1398">
   <path d="m526.5,251.5c20.67,0 41.33,0 62,0c-1.35,1.32 -1.18,2.32 0.5,3c2.43,0 4.93,-0.16 7.5,-0.5c-1.33,0.67 -1.33,1.33 0,2c-1.27,0.31 -2.43,0.81 -3.5,1.5c-0.93,2.19 -2.09,4.19 -3.5,6c-19.28,1.3 -38.62,1.3 -58,0c0.73,-1.55 2.06,-2.38 4,-2.5c-3.21,-2.45 -3.21,-4.11 0,-5c-1.44,-1.07 -2.78,-2.23 -4,-3.5c-1.79,0.75 -3.46,0.41 -5,-1z" fill="#3d5771" id="SvgjsPath1397"></path>
  </g>
  <g id="SvgjsG1396">
   <path d="m588.5,251.5c12.67,0 25.33,0 38,0c0,4.33 0,8.67 0,13c-12.33,0 -24.67,0 -37,0c0,-0.33 0,-0.67 0,-1c1.41,-1.81 2.57,-3.81 3.5,-6c1.07,-0.69 2.23,-1.19 3.5,-1.5c-1.33,-0.67 -1.33,-1.33 0,-2c-2.57,0.34 -5.07,0.5 -7.5,0.5c-1.68,-0.68 -1.85,-1.68 -0.5,-3z" fill="#3a5576" id="SvgjsPath1395"></path>
  </g>
  <g id="SvgjsG1394">
   <path d="m692.5,264.5c6.14,-0.99 12.48,-1.32 19,-1c0,5.67 0,11.33 0,17c-6.67,0 -13.33,0 -20,0c-0.32,-5.53 0.01,-10.86 1,-16z" fill="#7398af" id="SvgjsPath1393"></path>
  </g>
  <g id="SvgjsG1392">
   <path d="m423.5,264.5c35.83,-1 71.83,-1.33 108,-1c19.38,1.3 38.72,1.3 58,0c0,0.33 0,0.67 0,1c0,5.33 0,10.67 0,16c-18.33,0 -36.67,0 -55,0c-0.33,0 -0.67,0 -1,0c-0.33,0 -0.67,0 -1,0c-17.84,0.33 -35.51,0 -53,-1c18,0 36,0 54,0c0,-5 0,-10 0,-15c-36.67,0 -73.33,0 -110,0z" fill="#30445e" id="SvgjsPath1391"></path>
  </g>
  <g id="SvgjsG1390">
   <path d="m423.5,264.5c36.67,0 73.33,0 110,0c0,5 0,10 0,15c-18,0 -36,0 -54,0c-0.99,8.48 -1.33,17.15 -1,26c-0.99,-8.15 -1.33,-16.48 -1,-25c-18,0 -36,0 -54,0c0,-5.33 0,-10.67 0,-16z" fill="#4d6c87" id="SvgjsPath1389"></path>
  </g>
  <g id="SvgjsG1388">
   <path d="m651.5,280.5c-8,0 -16,0 -24,0c0,-5.33 0,-10.67 0,-16c8,0 16,0 24,0c0,5.33 0,10.67 0,16z" fill="#345370" id="SvgjsPath1387"></path>
  </g>
  <g id="SvgjsG1386">
   <path d="m692.5,264.5c6,0 12,0 18,0c0,5 0,10 0,15c-6,0 -12,0 -18,0c0,-5 0,-10 0,-15z" fill="#314765" id="SvgjsPath1385"></path>
  </g>
  <g id="SvgjsG1384">
   <path d="m320.5,280.5c-5.33,0 -10.67,0 -16,0c-1.95,-5.24 -2.62,-10.9 -2,-17c6,0 12,0 18,0c0,5.67 0,11.33 0,17z" fill="#324a69" id="SvgjsPath1383"></path>
  </g>
  <g id="SvgjsG1382">
   <path d="m656.5,280.5c6.14,-0.99 12.48,-1.32 19,-1c0,5 0,10 0,15c-0.33,0 -0.67,0 -1,0c0,-4.67 0,-9.33 0,-14c-6,0 -12,0 -18,0z" fill="#9bc0ca" id="SvgjsPath1381"></path>
  </g>
  <g id="SvgjsG1380">
   <path d="m479.5,279.5c17.49,1 35.16,1.33 53,1c0,7.67 0,15.33 0,23c-13.51,-0.33 -26.84,0 -40,1c-1.6,-0.27 -2.93,0.07 -4,1c-3.33,0 -6.67,0 -10,0c-0.33,-8.85 0.01,-17.52 1,-26z" fill="#1f1b2e" id="SvgjsPath1379"></path>
  </g>
  <g id="SvgjsG1378">
   <path d="m651.5,280.5c1.67,0 3.33,0 5,0c6,0 12,0 18,0c0,4.67 0,9.33 0,14c-7.67,0 -15.33,0 -23,0c0,-4.67 0,-9.33 0,-14z" fill="#354f6c" id="SvgjsPath1377"></path>
  </g>
  <g id="SvgjsG1376">
   <path d="m361.5,282.5c0,4.33 0,8.67 0,13c-7.33,0 -14.67,0 -22,0c6.81,-0.99 13.81,-1.32 21,-1c-0.32,-4.2 0.02,-8.2 1,-12z" fill="#597c95" id="SvgjsPath1375"></path>
  </g>
  <g id="SvgjsG1374">
   <path d="m422.5,264.5c0.33,0 0.67,0 1,0c0,5.33 0,10.67 0,16c0,8.33 0,16.67 0,25c-7.33,0 -14.67,0 -22,0c6.81,-0.99 13.81,-1.32 21,-1c0,-8 0,-16 0,-24c0,-5.33 0,-10.67 0,-16z" fill="#7ba0bc" id="SvgjsPath1373"></path>
  </g>
  <g id="SvgjsG1372">
   <path d="m422.5,280.5c0,8 0,16 0,24c-7.19,-0.32 -14.19,0.01 -21,1c-0.99,4.81 -1.32,9.81 -1,15c7.33,0 14.67,0 22,0c-0.28,1.92 0.05,3.58 1,5c0,3.33 0,6.67 0,10c-0.33,0 -0.67,0 -1,0c-7.67,0 -15.33,0 -23,0c0,-5 0,-10 0,-15c-6.33,0 -12.67,0 -19,0c0,-8.67 0,-17.33 0,-26c5,0 10,0 15,0c0,-4.67 0,-9.33 0,-14c9,0 18,0 27,0z" fill="#364e6a" id="SvgjsPath1371"></path>
  </g>
  <g id="SvgjsG1370">
   <path d="m674.5,294.5c0.33,0 0.67,0 1,0c5.33,0 10.67,0 16,0c0,8.67 0,17.33 0,26c-5.67,0 -11.33,0 -17,0c0,-1 0,-2 0,-3c0,-7.67 0,-15.33 0,-23z" fill="#37506b" id="SvgjsPath1369"></path>
  </g>
  <g id="SvgjsG1368">
   <path d="m701.5,294.5c6.67,0 13.33,0 20,0c0,8.67 0,17.33 0,26c-6.67,0 -13.33,0 -20,0c0,-8.67 0,-17.33 0,-26z" fill="#344c6b" id="SvgjsPath1367"></path>
  </g>
  <g id="SvgjsG1366">
   <path d="m361.5,282.5c-0.98,3.8 -1.32,7.8 -1,12c-7.19,-0.32 -14.19,0.01 -21,1c0,8.33 0,16.67 0,25c7.33,0 14.67,0 22,0c0,5 0,10 0,15c-7.67,0 -15.33,0 -23,0c0,-5 0,-10 0,-15c-5.33,0 -10.67,0 -16,0c0,-8.67 0,-17.33 0,-26c5.33,0 10.67,0 16,0c0,-4.67 0,-9.33 0,-14c7.34,0.17 14.67,0 22,-0.5c0.97,-5.07 1.31,-10.24 1,-15.5c7.67,0 15.33,0 23,0c0,5.33 0,10.67 0,16c-8.07,-0.63 -15.74,0.04 -23,2z" fill="#38506d" id="SvgjsPath1365"></path>
  </g>
  <g id="SvgjsG1364">
   <path d="m618.5,320.5c-2.11,-0.97 -4.44,-1.3 -7,-1c0,-4.67 0,-9.33 0,-14c-7.33,0 -14.67,0 -22,0c0,-8.33 0,-16.67 0,-25c9.05,0.31 18.05,-0.03 27,-1c0.99,4.96 1.33,9.96 1,15c5,0 10,0 15,0c0,8.67 0,17.33 0,26c-4.67,0 -9.33,0 -14,0z" fill="#374f6a" id="SvgjsPath1363"></path>
  </g>
  <g id="SvgjsG1362">
   <path d="m651.5,294.5c7.67,0 15.33,0 23,0c0,7.67 0,15.33 0,23c-0.99,-7.15 -1.33,-14.48 -1,-22c-7.52,0.32 -14.85,-0.01 -22,-1z" fill="#8eacbf" id="SvgjsPath1361"></path>
  </g>
  <g id="SvgjsG1360">
   <path d="m423.5,280.5c18,0 36,0 54,0c-0.33,8.52 0.01,16.85 1,25c3.33,0 6.67,0 10,0c15.33,0 30.67,0 46,0c0,-8.33 0,-16.67 0,-25c18.33,0 36.67,0 55,0c0,8.33 0,16.67 0,25c7.33,0 14.67,0 22,0c0,4.67 0,9.33 0,14c-7.15,0.99 -14.48,1.32 -22,1c0,5 0,10 0,15c-11.67,0 -23.33,0 -35,0c0,-5 0,-10 0,-15c-32.16,-1 -64.5,-1.33 -97,-1c0,-8.33 0,-16.67 0,-25c-5.33,0 -10.67,0 -16,0c0,8.67 0,17.33 0,26c5.33,0 10.67,0 16,0c0,5 0,10 0,15c-11.33,0 -22.67,0 -34,0c0,-3.33 0,-6.67 0,-10c0,-2 0,-4 0,-6c-7.33,0 -14.67,0 -22,0c0,-4.67 0,-9.33 0,-14c7.33,0 14.67,0 22,0c0,-8.33 0,-16.67 0,-25z" fill="#ebf9fb" id="SvgjsPath1359"></path>
  </g>
  <g id="SvgjsG1358">
   <path d="m555.5,294.5c5.33,0 10.67,0 16,0c0,8.67 0,17.33 0,26c-5.33,0 -10.67,0 -16,0c0,-8.67 0,-17.33 0,-26z" fill="#18182c" id="SvgjsPath1357"></path>
  </g>
  <g id="SvgjsG1356">
   <path d="m533.5,280.5c0.33,0 0.67,0 1,0c0,8.33 0,16.67 0,25c-15.33,0 -30.67,0 -46,0c1.07,-0.93 2.4,-1.27 4,-1c13.67,0 27.33,0 41,0c0,-8 0,-16 0,-24z" fill="#587480" id="SvgjsPath1355"></path>
  </g>
  <g id="SvgjsG1354">
   <path d="m532.5,280.5c0.33,0 0.67,0 1,0c0,8 0,16 0,24c-13.67,0 -27.33,0 -41,0c13.16,-1 26.49,-1.33 40,-1c0,-7.67 0,-15.33 0,-23z" fill="#01010f" id="SvgjsPath1353"></path>
  </g>
  <g id="SvgjsG1352">
   <path d="m457.5,319.5c0,0.33 0,0.67 0,1c-5.33,0 -10.67,0 -16,0c0,-8.67 0,-17.33 0,-26c5.33,0 10.67,0 16,0c0,8.33 0,16.67 0,25z" fill="#1b1a2b" id="SvgjsPath1351"></path>
  </g>
  <g id="SvgjsG1350">
   <path d="m401.5,305.5c0,4.67 0,9.33 0,14c7.33,0 14.67,0 22,0c0,2 0,4 0,6c-0.95,-1.42 -1.28,-3.08 -1,-5c-7.33,0 -14.67,0 -22,0c-0.32,-5.19 0.01,-10.19 1,-15z" fill="#6c8f9d" id="SvgjsPath1349"></path>
  </g>
  <g id="SvgjsG1348">
   <path d="m545.5,320.5c-28.5,1 -57.16,1.33 -86,1c0.32,4.53 -0.01,8.87 -1,13c0,-4.67 0,-9.33 0,-14c29,0 58,0 87,0z" fill="#08000e" id="SvgjsPath1347"></path>
  </g>
  <g id="SvgjsG1346">
   <path d="m545.5,320.5c3,0 6,0 9,0c0,5 0,10 0,15c-32.17,0.33 -64.17,0 -96,-1c0.99,-4.13 1.32,-8.47 1,-13c28.84,0.33 57.5,0 86,-1z" fill="#1c172e" id="SvgjsPath1345"></path>
  </g>
  <g id="SvgjsG1344">
   <path d="m590.5,335.5c7,0 14,0 21,0c0,3.67 0,7.33 0,11c0,1.33 0,2.67 0,4c-7,0 -14,0 -21,0c0,-5 0,-10 0,-15z" fill="#e6fafc" id="SvgjsPath1343"></path>
  </g>
  <g id="SvgjsG1342">
   <path d="m611.5,319.5c2.56,-0.3 4.89,0.03 7,1c-2,0 -4,0 -6,0c0,5 0,10 0,15c13,0 26,0 39,0c0,-5 0,-10 0,-15c7.67,0 15.33,0 23,0c0,5 0,10 0,15c-7.52,-0.32 -14.85,0.01 -22,1c-0.99,4.47 -1.32,9.14 -1,14c-13,0 -26,0 -39,0c0.27,-1.6 -0.07,-2.93 -1,-4c0,-3.67 0,-7.33 0,-11c-7,0 -14,0 -21,0c-0.33,0 -0.67,0 -1,0c0,-5 0,-10 0,-15c7.52,0.32 14.85,-0.01 22,-1z" fill="#374f70" id="SvgjsPath1341"></path>
  </g>
  <g id="SvgjsG1340">
   <path d="m457.5,319.5c32.5,-0.33 64.84,0 97,1c-3,0 -6,0 -9,0c-29,0 -58,0 -87,0c0,4.67 0,9.33 0,14c31.83,1 63.83,1.33 96,1c11.67,0 23.33,0 35,0c0,5.33 0,10.67 0,16c-0.33,0 -0.67,0 -1,0c-54.67,0 -109.33,0 -164,0c0,-5 0,-10 0,-15c11.18,0.33 22.18,0 33,-1c0,-5 0,-10 0,-15c0,-0.33 0,-0.67 0,-1z" fill="#476683" id="SvgjsPath1339"></path>
  </g>
  <g id="SvgjsG1338">
   <path d="m589.5,335.5c0.33,0 0.67,0 1,0c0,5 0,10 0,15c7,0 14,0 21,0c0,0.33 0,0.67 0,1c-7.33,0 -14.67,0 -22,0c0,-5.33 0,-10.67 0,-16z" fill="#9dc2d0" id="SvgjsPath1337"></path>
  </g>
  <g id="SvgjsG1336">
   <path d="m652.5,336.5c0,5 0,10 0,15c-13.33,0 -26.67,0 -40,0c0.32,5.53 -0.01,10.86 -1,16c0,-5.33 0,-10.67 0,-16c0,-0.33 0,-0.67 0,-1c0,-1.33 0,-2.67 0,-4c0.93,1.07 1.27,2.4 1,4c13,0 26,0 39,0c-0.32,-4.86 0.01,-9.53 1,-14z" fill="#6f8fb0" id="SvgjsPath1335"></path>
  </g>
  <g id="SvgjsG1334">
   <path d="m692.5,335.5c0,5 0,10 0,15c6,0 12,0 18,0c0,-5 0,-10 0,-15c0.99,5.14 1.32,10.47 1,16c-6.67,0 -13.33,0 -20,0c-0.32,-5.53 0.01,-10.86 1,-16z" fill="#86a5bf" id="SvgjsPath1333"></path>
  </g>
  <g id="SvgjsG1332">
   <path d="m692.5,335.5c6,0 12,0 18,0c0,5 0,10 0,15c-6,0 -12,0 -18,0c0,-5 0,-10 0,-15z" fill="#37496a" id="SvgjsPath1331"></path>
  </g>
  <g id="SvgjsG1330">
   <path d="m423.5,335.5c11.33,0 22.67,0 34,0c-10.82,1 -21.82,1.33 -33,1c0,5 0,10 0,15c54.67,0 109.33,0 164,0c7.15,0.99 14.48,1.32 22,1c0,4.67 0,9.33 0,14c-29.17,-0.33 -58.17,0 -87,1c-1.55,0.32 -2.22,1.32 -2,3c-0.9,-0.71 -1.24,-1.71 -1,-3c-9.33,0 -18.67,0 -28,0c-0.33,0 -0.67,0 -1,0c-0.67,0 -1.33,0 -2,0c-28.83,-1 -57.83,-1.33 -87,-1c0,-4.67 0,-9.33 0,-14c7.19,0.32 14.19,-0.01 21,-1c0,-5.33 0,-10.67 0,-16z" fill="#324760" id="SvgjsPath1329"></path>
  </g>
  <g id="SvgjsG1328">
   <path d="m423.5,351.5c-6.81,0.99 -13.81,1.32 -21,1c0,4.67 0,9.33 0,14c29.17,-0.33 58.17,0 87,1c-29.33,0 -58.67,0 -88,0c0,-5.33 0,-10.67 0,-16c7.33,0 14.67,0 22,0z" fill="#1c304d" id="SvgjsPath1327"></path>
  </g>
  <g id="SvgjsG1326">
   <path d="m588.5,351.5c0.33,0 0.67,0 1,0c7.33,0 14.67,0 22,0c0,5.33 0,10.67 0,16c-29.33,0 -58.67,0 -88,0c28.83,-1 57.83,-1.33 87,-1c0,-4.67 0,-9.33 0,-14c-7.52,0.32 -14.85,-0.01 -22,-1z" fill="#1b314f" id="SvgjsPath1325"></path>
  </g>
  <g id="SvgjsG1324">
   <path d="m422.5,335.5c0.33,0 0.67,0 1,0c0,5.33 0,10.67 0,16c-7.33,0 -14.67,0 -22,0c0,5.33 0,10.67 0,16c29.33,0 58.67,0 88,0c0.67,0 1.33,0 2,0c0,14.67 0,29.33 0,44c-1,0 -2,0 -3,0c1.96,-14.09 2.62,-28.42 2,-43c-30,0 -60,0 -90,0c0,-6 0,-12 0,-18c7.33,0 14.67,0 22,0c0,-5 0,-10 0,-15z" fill="#8eadc3" id="SvgjsPath1323"></path>
  </g>
  <g id="SvgjsG1322">
   <path d="m302.5,351.5c6,0 12,0 18,0c0,5.67 0,11.33 0,17c-6,0 -12,0 -18,0c0,-5.67 0,-11.33 0,-17z" fill="#334d6c" id="SvgjsPath1321"></path>
  </g>
  <g id="SvgjsG1320">
   <path d="m361.5,335.5c7.33,0 14.67,0 22,0c0.31,5.26 -0.03,10.43 -1,15.5c-6.99,0.5 -13.99,0.67 -21,0.5c0,-5.33 0,-10.67 0,-16z" fill="#3b577c" id="SvgjsPath1319"></path>
  </g>
  <g id="SvgjsG1318">
   <path d="m378.5,230.5c0,5.67 0,11.33 0,17c-5.67,0 -11.33,0 -17,0c0,-5.67 0,-11.33 0,-17c5.67,0 11.33,0 17,0z" fill="#324c6d" id="SvgjsPath1317"></path>
  </g>
  <g id="SvgjsG1316">
   <path d="m674.5,411.5c-17,0 -34,0 -51,0c-0.33,-5.33 -0.67,-10.67 -1,-16c17.33,0 34.67,0 52,0c0,5.33 0,10.67 0,16z" fill="#1f1b2e" id="SvgjsPath1315"></path>
  </g>
  <g id="SvgjsG1314">
   <path d="m390.5,411.5c-0.33,0 -0.67,0 -1,0c-17,0 -34,0 -51,0c0,-5.33 0,-10.67 0,-16c17.33,0 34.67,0 52,0c0,5.33 0,10.67 0,16z" fill="#1f1a2f" id="SvgjsPath1313"></path>
  </g>
  <g id="SvgjsG1312">
   <path d="m491.5,367.5c0.33,0 0.67,0 1,0c1.29,14.95 1.29,29.95 0,45c-15,0 -30,0 -45,0c-19,0 -38,0 -57,0c0.31,3.54 -0.02,6.88 -1,10c0,-3.67 0,-7.33 0,-11c0.33,0 0.67,0 1,0c32.67,0 65.33,0 98,0c1,0 2,0 3,0c0,-14.67 0,-29.33 0,-44z" fill="#050413" id="SvgjsPath1311"></path>
  </g>
  <g id="SvgjsG1310">
   <path d="m447.5,412.5c-4.47,0.99 -9.14,1.32 -14,1c-0.08,1.43 0.25,2.76 1,4c-1.69,0.73 -3.19,1.73 -4.5,3c-3.26,-1.34 -3.76,-1.01 -1.5,1c-0.21,0.59 -0.54,1.09 -1,1.5c0.73,1.4 1.23,2.9 1.5,4.5c0.5,-1.97 0.66,-3.97 0.5,-6c2.36,0.16 4.69,0 7,-0.5c-1.1,-1.13 -0.77,-1.96 1,-2.5c1.01,0.44 1.01,1.1 0,2c1.45,0.67 2.78,1.34 4,2c-3.8,-0.34 -6.8,0 -9,1c0,0.33 0,0.67 0,1c-0.67,0 -1,0.33 -1,1c-0.99,4.47 -1.32,9.14 -1,14c9.67,0 19.33,0 29,0c0.25,1.42 1.08,2.42 2.5,3c4.45,-0.9 8.78,-1.24 13,-1c0.33,0.67 0.67,1.33 1,2c1.07,-0.69 2.23,-1.19 3.5,-1.5c11.93,-0.37 23.77,-0.54 35.5,-0.5c1.83,1.36 3.66,1.69 5.5,1c0.69,0.52 1.19,1.19 1.5,2c2.51,-2.32 5.34,-2.66 8.5,-1c1.56,-0.57 3.06,-1.24 4.5,-2c3.43,0.51 6.6,0.51 9.5,0c0.33,0.33 0.67,0.67 1,1c-3.87,1.5 -3.54,2.17 1,2c0,-1 0,-2 0,-3c2.65,0.39 5.15,0.39 7.5,0c0.32,1.8 0.98,2.13 2,1c1.31,1.07 2.81,1.74 4.5,2c1.61,-0.93 3.11,-0.93 4.5,0c1.79,-2.01 3.13,-2.01 4,0c0.91,-1.15 1.75,-0.99 2.5,0.5c-0.33,0.33 -0.67,0.67 -1,1c1.29,0.49 2.63,0.66 4,0.5c-0.47,1.7 -0.47,3.2 0,4.5c-1.21,1.84 -2.54,2.68 -4,2.5c3.86,1.1 3.86,1.93 0,2.5c0.95,0.48 1.95,0.65 3,0.5c0.14,1.62 -0.53,2.79 -2,3.5c3.51,1.84 3.85,4.18 1,7c0.99,2.23 0.32,4.06 -2,5.5c0.52,0.69 1.19,1.19 2,1.5c-1.83,2.11 -3,4.61 -3.5,7.5c-0.42,-4.35 -1.09,-4.69 -2,-1c-1.78,-2.78 -2.78,-2.44 -3,1c-3.09,-1.5 -6.25,-2.83 -9.5,-4c-1.36,0.7 -2.53,0.7 -3.5,0c-1.31,2.39 -2.31,2.39 -3,0c-0.33,0.67 -0.67,1.33 -1,2c-2.72,-2.73 -5.22,-2.56 -7.5,0.5c-3.83,-0.04 -7.33,0.8 -10.5,2.5c-0.67,-2.67 -1.33,-2.67 -2,0c-1.41,-1.17 -2.57,-0.83 -3.5,1c-1.32,-2.53 -2.48,-2.53 -3.5,0c-0.69,-2.39 -1.69,-2.39 -3,0c-0.74,-1.14 -1.58,-1.14 -2.5,0c-0.78,1.23 -1.28,2.56 -1.5,4c-0.32,-1.8 -0.98,-2.13 -2,-1c-1.15,-1.24 -2.49,-2.24 -4,-3c-11.92,-0.48 -23.25,-0.48 -34,0c-1.07,0.69 -2.23,1.19 -3.5,1.5c0.71,1.34 0.38,2.68 -1,4c-1.6,0.27 -3.1,0.77 -4.5,1.5c-1,-0.33 -2,-0.67 -3,-1c-5.02,2.06 -10.36,3.4 -16,4c-2.8,-2.9 -6.14,-2.57 -10,1c-1.02,-1.13 -1.68,-0.8 -2,1c-1.19,-9.28 -1.85,-18.62 -2,-28c-0.5,12.66 -0.67,25.33 -0.5,38c0,4.67 0,9.33 0,14c36,0 72,0 108,0c-14.49,0.83 -29.16,1.33 -44,1.5c0.67,0.33 1.33,0.67 2,1c-2.96,1.5 -5.96,1.66 -9,0.5c1.1,-0.5 2.1,-0.83 3,-1c-12.08,-1.5 -24.08,-1.17 -36,1c-7.24,-1.7 -14.57,-2.2 -22,-1.5c-4.32,1.19 -4.65,2.52 -1,4c-2.23,0.56 -4.23,1.56 -6,3c-2.33,0.33 -4.67,0.67 -7,1c3.02,0.13 5.69,1.13 8,3c-5.18,0.17 -10.18,0.67 -15,1.5c-0.67,0 -1.33,0 -2,0c-0.99,5.14 -1.32,10.47 -1,16c-5,0 -10,0 -15,0c0,8.33 0,16.67 0,25c1.67,0 3.33,0 5,0c-1.87,0.66 -3.87,1.33 -6,2c1.98,0.72 3.65,1.88 5,3.5c-0.96,3.39 -1.29,6.89 -1,10.5c4.2,-0.8 6.87,0.87 8,5c1.58,0.8 3.24,1.3 5,1.5c-1.33,0.67 -1.33,1.33 0,2c1.29,0.49 2.63,0.66 4,0.5c0,1.33 0,2.67 0,4c-1,0 -2,0 -3,0c-0.49,5.01 0.34,5.67 2.5,2c0.67,0.67 1.33,1.33 2,2c-0.3,-2.47 -0.47,-4.81 -0.5,-7c5.55,-1.47 9.72,0.53 12.5,6c0.92,-0.83 1.58,-1.83 2,-3c0.67,1.33 1.33,2.67 2,4c1.36,-0.76 2.53,-0.26 3.5,1.5c-1.15,0.64 -2.15,1.48 -3,2.5c-0.33,-0.67 -0.67,-1.33 -1,-2c-1.09,1.23 -2.42,2.06 -4,2.5c1.2,0.65 1.2,1.15 0,1.5c-0.69,-0.52 -1.19,-1.19 -1.5,-2c-0.44,2.18 -1.44,2.85 -3,2c-2.08,1.46 -4.41,2.12 -7,2c-3.28,-0.23 -6.45,-0.9 -9.5,-2c0.16,1.7 -0.01,3.37 -0.5,5c-0.42,-1.26 -1.25,-1.92 -2.5,-2c0.32,-4.2 -0.02,-8.2 -1,-12c-5.36,-1.29 -10.86,-2.29 -16.5,-3c0.36,4.24 0.36,8.57 0,13c-1.56,1.65 -3.22,1.98 -5,1c-1.28,1.07 -1.62,2.4 -1,4c-1.79,-0.84 -3.62,-1.01 -5.5,-0.5c1.28,-1.3 1.12,-2.46 -0.5,-3.5c-2.62,4.2 -2.45,8.03 0.5,11.5c-1.13,3.74 -1.29,7.58 -0.5,11.5c0.97,-2.38 1.64,-2.04 2,1c1.16,6.95 1.66,13.95 1.5,21c-5.67,0 -11.33,0 -17,0c0,6.33 0,12.67 0,19c-6.85,-0.32 -13.52,0.01 -20,1c0,9.33 0,18.67 0,28c-16.33,0 -32.67,0 -49,0c0,-5 0,-10 0,-15c-5.67,0 -11.33,0 -17,0c0,-4.67 0,-9.33 0,-14c-5,0 -10,0 -15,0c0,-1.33 0,-2.67 0,-4c0.72,-0.42 1.22,-1.08 1.5,-2c0.5,-28.66 0.67,-57.33 0.5,-86c4.67,0 9.33,0 14,0c0.72,-17.72 1.06,-35.39 1,-53c1.33,0 2.67,0 4,0c1.33,0 2.67,0 4,0c0,-24.33 0,-48.67 0,-73c0,-0.67 0,-1.33 0,-2c5.81,-0.99 11.81,-1.32 18,-1c0,-1 0,-2 0,-3c0,-8.33 0,-16.67 0,-25c7.08,0.63 13.75,-0.04 20,-2c0.67,0 1,-0.33 1,-1c0.99,-4.47 1.32,-9.14 1,-14c4.01,-0.17 8.01,0 12,0.5c0.46,4.01 1.46,7.84 3,11.5c-0.76,0.41 -1.76,0.58 -3,0.5c1.13,1.02 0.8,1.68 -1,2c2,0.33 4,0.67 6,1c-1.33,0.33 -2.67,0.67 -4,1c-0.61,2.18 0.06,4.18 2,6c-0.83,0.83 -1.67,1.67 -2.5,2.5c-1.22,-2.49 -2.72,-2.65 -4.5,-0.5c0.79,7.58 0.79,16.92 0,28c-1.6,0.27 -3.1,0.77 -4.5,1.5c-4.08,-0.8 -8.25,-1.3 -12.5,-1.5c1.33,-0.33 2.67,-0.67 4,-1c-0.95,-0.48 -1.95,-0.65 -3,-0.5c-0.5,-3.85 -2.5,-5.19 -6,-4c-1.25,-0.54 -2.42,-1.21 -3.5,-2c-0.48,0.95 -0.65,1.95 -0.5,3c-3.1,-0.09 -3.43,0.41 -1,1.5c-0.89,1.22 -1.89,2.55 -3,4c0.67,1.33 1.67,2.33 3,3c10.05,-0.14 19.72,0.69 29,2.5c-10,0 -20,0 -30,0c0,10.33 0,20.67 0,31c10.15,0.99 20.49,1.33 31,1c-0.43,2.67 -0.93,5.33 -1.5,8c-0.33,-0.33 -0.67,-0.67 -1,-1c-1.62,1.51 -1.62,2.84 0,4c0.33,4 0.67,8 1,12c0.31,-1.27 0.81,-2.43 1.5,-3.5c0.21,-2.63 -0.13,-4.97 -1,-7c0.5,-0.5 1,-1 1.5,-1.5c0.13,6.9 0.96,13.57 2.5,20c10.49,0.99 21.15,1.33 32,1c0,-10.33 0,-20.67 0,-31c-10.67,0 -21.33,0 -32,0c21.33,-0.67 42.67,-1.33 64,-2c0,-10.33 0,-20.67 0,-31c-10.67,0 -21.33,0 -32,0c0,10.33 0,20.67 0,31c-0.83,-8.49 -1.33,-17.16 -1.5,-26c-0.5,8.66 -0.67,17.33 -0.5,26c-9.33,0 -18.67,0 -28,0c-0.36,-10.88 -0.69,-21.55 -1,-32c10.33,0 20.67,0 31,0c0,-10.33 0,-20.67 0,-31c0.01,-0.92 -0.99,-1.42 -3,-1.5c-7,-0.33 -14,-0.67 -21,-1c3.92,-3.1 3.59,-4.77 -1,-5c-0.33,-0.33 -0.67,-0.67 -1,-1c1.12,-1.04 2.46,-1.71 4,-2c-5.29,-0.82 -5.29,-1.32 0,-1.5c0,-1 0,-2 0,-3c2.36,0.16 4.69,0 7,-0.5c-1.67,-0.33 -3.33,-0.67 -5,-1c13.51,-0.17 26.84,-0.67 40,-1.5c0.98,-3.12 1.31,-6.46 1,-10c19,0 38,0 57,0z" fill="#201b2f" id="SvgjsPath1309"></path>
  </g>
  <g id="SvgjsG1308">
   <path d="m338.5,411.5c17,0 34,0 51,0c0,3.67 0,7.33 0,11c-17,0 -34,0 -51,0c0,-3.33 0,-6.67 0,-10c0,-0.33 0,-0.67 0,-1z" fill="#768da5" id="SvgjsPath1307"></path>
  </g>
  <g id="SvgjsG1306">
   <path d="m338.5,411.5c0,0.33 0,0.67 0,1c-5.33,0 -10.67,0 -16,0c0,5 0,10 0,15c0,0.67 -0.33,1 -1,1c0,-5.67 0,-11.33 0,-17c5.67,0 11.33,0 17,0z" fill="#414b60" id="SvgjsPath1305"></path>
  </g>
  <g id="SvgjsG1304">
   <path d="m432.5,424.5c0,-0.33 0,-0.67 0,-1c49.67,0 99.33,0 149,0c0.32,4.86 -0.01,9.53 -1,14c0,-2 0,-4 0,-6c0,-2.33 0,-4.67 0,-7c-49.33,0 -98.67,0 -148,0z" fill="#5877a0" id="SvgjsPath1303"></path>
  </g>
  <g id="SvgjsG1302">
   <path d="m432.5,424.5c49.33,0 98.67,0 148,0c0,2.33 0,4.67 0,7c-48.93,1 -97.93,1.33 -147,1c0.24,1.29 -0.1,2.29 -1,3c0,-3.67 0,-7.33 0,-11z" fill="#f7fefe" id="SvgjsPath1301"></path>
  </g>
  <g id="SvgjsG1300">
   <path d="m400.5,430.5c5.67,0 11.33,0 17,0c0,7.67 0,15.33 0,23c-5.67,0 -11.33,0 -17,0c0,-7.67 0,-15.33 0,-23z" fill="#def4f6" id="SvgjsPath1299"></path>
  </g>
  <g id="SvgjsG1298">
   <path d="m580.5,431.5c0,2 0,4 0,6c-49.68,0.66 -99.01,0 -148,-2c0.9,-0.71 1.24,-1.71 1,-3c49.07,0.33 98.07,0 147,-1z" fill="#badeec" id="SvgjsPath1297"></path>
  </g>
  <g id="SvgjsG1296">
   <path d="m432.5,424.5c0,3.67 0,7.33 0,11c48.99,2 98.32,2.66 148,2c0,0.33 0,0.67 0,1c-49.67,0 -99.33,0 -149,0c0,-4.33 0,-8.67 0,-13c0,-0.67 0.33,-1 1,-1z" fill="#778a8f" id="SvgjsPath1295"></path>
  </g>
  <g id="SvgjsG1294">
   <path d="m431.5,425.5c0,4.33 0,8.67 0,13c49.67,0 99.33,0 149,0c-40.16,1 -80.5,1.33 -121,1c-9.67,0 -19.33,0 -29,0c-0.32,-4.86 0.01,-9.53 1,-14z" fill="#0a0712" id="SvgjsPath1293"></path>
  </g>
  <g id="SvgjsG1292">
   <path d="m492.5,367.5c9.33,0 18.67,0 28,0c-0.24,1.29 0.1,2.29 1,3c0,13.67 0,27.33 0,41c34,0 68,0 102,0c0,3.67 0,7.33 0,11c17,0 34,0 51,0c0,-3.67 0,-7.33 0,-11c5.67,0 11.33,0 17,0c0,6.33 0,12.67 0,19c6.67,0 13.33,0 20,0c0,9.33 0,18.67 0,28c6.33,0 12.67,0 19,0c0,25.33 0,50.67 0,76c3.33,0 6.67,0 10,0c0,1.67 0,3.33 0,5c-1.06,15.5 -1.56,31.17 -1.5,47c4.74,0.97 9.57,1.3 14.5,1c0,30.33 0,60.67 0,91c-5,0 -10,0 -15,0c-0.32,4.53 0.01,8.87 1,13c-4.9,1.95 -10.23,2.61 -16,2c0,5 0,10 0,15c-17,0 -34,0 -51,0c0,-9.33 0,-18.67 0,-28c-7,0 -14,0 -21,0c0,-6 0,-12 0,-18c-5.67,0 -11.33,0 -17,0c0,-1.33 0,-2.67 0,-4c0,-12.67 0,-25.33 0,-38c-4,0 -8,0 -12,0c0.32,-5.53 -0.01,-10.86 -1,-16c0.04,-2.25 0.88,-2.91 2.5,-2c0.51,-3.33 -0.99,-4.99 -4.5,-5c-1.27,0.07 -2.44,0.4 -3.5,1c-0.51,-2.04 -1.34,-3.88 -2.5,-5.5c2,-0.33 4,-0.67 6,-1c-1.5,-1.49 -2.34,-3.32 -2.5,-5.5c-0.33,0.67 -0.67,1.33 -1,2c-0.85,-0.92 -1.85,-0.92 -3,0c-2.26,-0.93 -4.26,-2.26 -6,-4c-1.25,2.49 -2.42,2.33 -3.5,-0.5c1.64,-0.24 3.14,-1.08 4.5,-2.5c-0.31,-1.43 -0.14,-2.77 0.5,-4c3.62,-0.83 7.29,-1.33 11,-1.5c0.5,-0.5 1,-1 1.5,-1.5c0.18,-7.58 0.68,-15.08 1.5,-22.5c-0.65,-1.61 -1.48,-3.11 -2.5,-4.5c-1.36,0.88 -2.86,1.21 -4.5,1c0,-1 0,-2 0,-3c-3.55,-0.16 -4.89,-1.83 -4,-5c-0.35,-1.2 -0.85,-1.2 -1.5,0c-2.27,-2.59 -3.43,-5.59 -3.5,-9c-2.08,0.03 -3.92,-0.64 -5.5,-2c-3.12,1.29 -6.29,1.29 -9.5,0c-3.74,-2.2 -7.41,-4.36 -11,-6.5c1.27,-0.31 2.43,-0.81 3.5,-1.5c0.17,-2.83 0.33,-5.67 0.5,-8.5c-0.41,-8.43 -1.41,-16.93 -3,-25.5c0.05,-6.92 0.05,-13.76 0,-20.5c0.67,-2.67 1.33,-5.33 2,-8c0.61,-2.18 -0.06,-4.18 -2,-6c0.16,-3.29 0.16,-6.79 0,-10.5c1.76,-0.14 3.43,0.19 5,1c0.65,-1.65 1.65,-2.98 3,-4c1.77,0.54 2.1,1.37 1,2.5c0.67,0.33 1.33,0.67 2,1c-0.57,4.3 -0.74,9.13 -0.5,14.5c0.75,-0.63 1.58,-1.13 2.5,-1.5c5.32,-0.5 10.66,-0.67 16,-0.5c0,1 0,2 0,3c-5.13,0.22 -5.13,0.89 0,2c0.17,1.32 -0.16,2.49 -1,3.5c0.92,0.37 1.75,0.87 2.5,1.5c0.42,-1.46 1.26,-1.96 2.5,-1.5c-2.85,2.34 -6.02,4.18 -9.5,5.5c-1.3,1.87 -1.63,3.87 -1,6c0.38,-0.56 0.88,-0.89 1.5,-1c0,9.67 0,19.33 0,29c2.33,0 4.67,0 7,0c1.33,0 2.67,0 4,0c5.67,0 11.33,0 17,0c2.67,0 5.33,0 8,0c0,-1.33 0,-2.67 0,-4c0.62,0.11 1.12,0.44 1.5,1c0.73,-9.69 0.56,-19.36 -0.5,-29c3.33,0 6.67,0 10,0c7.15,0.99 14.48,1.32 22,1c0,10.33 0,20.67 0,31c-9.85,-0.33 -19.51,0.01 -29,1c-1.29,-0.24 -2.29,0.1 -3,1c0,10 0,20 0,30c10.82,1 21.82,1.33 33,1c0,-9.33 0,-18.67 0,-28c0.83,8.82 1.33,17.82 1.5,27c0.5,-9.99 0.67,-19.99 0.5,-30c7.01,0.17 14.01,0 21,-0.5c-7.51,-0.17 -14.85,-0.67 -22,-1.5c-0.99,-10.49 -1.33,-21.15 -1,-32c0.64,-10.72 -0.02,-21.05 -2,-31c-4.79,-1.33 -9.95,-2 -15.5,-2c-5.17,0.17 -10.33,0.33 -15.5,0.5c-1.03,5.09 -1.87,10.25 -2.5,15.5c-0.33,-0.33 -0.67,-0.67 -1,-1c-0.07,2.55 -0.9,4.71 -2.5,6.5c0.28,1.96 0.28,4.12 0,6.5c-2.93,0.79 -5.93,1.45 -9,2c-3.49,-1.22 -6.82,-2.05 -10,-2.5c0.67,-1.33 1.67,-2.33 3,-3c-2.31,-0.35 -2.64,-1.35 -1,-3c-0.66,-2.46 -1.16,-4.96 -1.5,-7.5c-0.33,1 -0.67,2 -1,3c-1.22,-2.02 -1.38,-4.02 -0.5,-6c-1.24,-3.14 -1.91,-6.47 -2,-10c-0.22,-4.19 0.45,-8.19 2,-12c-0.5,-1 -1,-2 -1.5,-3c-0.42,1.17 -1.09,2.17 -2,3c-1.35,-1.2 -3.02,-1.87 -5,-2c-2.68,0.21 -5.02,0.55 -7,1c-0.33,-0.67 -0.67,-1.33 -1,-2c-1.87,-0.19 -3.87,0.15 -6,1c-3.03,2.32 -3.86,1.48 -2.5,-2.5c-0.81,-0.31 -1.48,-0.81 -2,-1.5c0.5,-1.22 0.84,-2.38 1,-3.5c-2.67,-0.67 -2.67,-1.33 0,-2c-2.67,-0.67 -2.67,-1.33 0,-2c-16.57,-0.82 -33.07,-0.66 -49.5,0.5c-2.89,-1.28 -6.06,-1.95 -9.5,-2c-3,0.17 -6,0.33 -9,0.5c0.33,0.33 0.67,0.67 1,1c-0.61,2.51 -1.94,4.51 -4,6c0.67,0.33 1.33,0.67 2,1c-2.33,0.67 -4.67,0.67 -7,0c1.33,-1.64 2.67,-2.47 4,-2.5c-0.5,-1 -1,-2 -1.5,-3c-0.42,1.46 -1.26,1.96 -2.5,1.5c0.46,-0.41 0.79,-0.91 1,-1.5c-0.99,-0.97 -1.66,-2.13 -2,-3.5c0.73,-3.49 1.4,-6.99 2,-10.5c-0.71,-6.31 -1.21,-12.65 -1.5,-19c-1.57,0.56 -2.9,-0.11 -4,-2c-1.12,2.98 -1.62,6.14 -1.5,9.5c0.25,5.08 0.58,9.91 1,14.5c1,0 2,0 3,0c-0.75,2.08 -0.75,4.08 0,6c-0.75,0.24 -1.58,0.57 -2.5,1c-3.85,-1.69 -5.69,-4.69 -5.5,-9c1,0 2,0 3,0c0.16,-1.7 -0.01,-3.37 -0.5,-5c-1.51,1.04 -3.01,0.87 -4.5,-0.5c1.51,-4.35 2.35,-9.19 2.5,-14.5c0.36,-3.04 1.03,-3.38 2,-1c0.33,-1.33 0.67,-2.67 1,-4c0.83,2.5 2,2.67 3.5,0.5c-0.84,-1.67 -0.34,-1.83 1.5,-0.5c1.11,-1.26 1.28,-2.43 0.5,-3.5c0.67,-1.33 1.67,-2.33 3,-3c-6.89,-1.59 -13.89,-1.92 -21,-1c-0.62,1.4 -0.95,2.9 -1,4.5c0.76,9.85 1.43,19.19 2,28c-1.17,3.68 -1.84,7.18 -2,10.5c0.29,1.89 1.29,3.22 3,4c-1.9,1.83 -3.74,1.66 -5.5,-0.5c-0.75,0.63 -1.58,1.13 -2.5,1.5c1.33,0.67 1.33,1.33 0,2c3.05,0.18 6.05,0.68 9,1.5c-18.99,1 -37.99,1.33 -57,1c-1.22,-0.66 -2.55,-1.33 -4,-2c1.01,-0.9 1.01,-1.56 0,-2c-1.77,0.54 -2.1,1.37 -1,2.5c-2.31,0.5 -4.64,0.66 -7,0.5c0.16,2.03 0,4.03 -0.5,6c-0.27,-1.6 -0.77,-3.1 -1.5,-4.5c0.46,-0.41 0.79,-0.91 1,-1.5c-2.26,-2.01 -1.76,-2.34 1.5,-1c1.31,-1.27 2.81,-2.27 4.5,-3c-0.75,-1.24 -1.08,-2.57 -1,-4c4.86,0.32 9.53,-0.01 14,-1c15,0 30,0 45,0c1.29,-15.05 1.29,-30.05 0,-45z" fill="#201c2f" id="SvgjsPath1291"></path>
  </g>
  <g id="SvgjsG1290">
   <path d="m623.5,411.5c17,0 34,0 51,0c0,3.67 0,7.33 0,11c-17,0 -34,0 -51,0c0,-3.67 0,-7.33 0,-11z" fill="#768ea5" id="SvgjsPath1289"></path>
  </g>
  <g id="SvgjsG1288">
   <path d="m369.5,440.5c0,10.33 0,20.67 0,31c-10.33,0 -20.67,0 -31,0c-0.99,-10.15 -1.33,-20.49 -1,-31c10.67,0 21.33,0 32,0z" fill="#e2f9fa" id="SvgjsPath1287"></path>
  </g>
  <g id="SvgjsG1286">
   <path d="m673.5,440.5c1.98,9.95 2.64,20.28 2,31c-7.67,0 -15.33,0 -23,0c-3.33,0 -6.67,0 -10,0c0,-10.33 0,-20.67 0,-31c10.33,0 20.67,0 31,0z" fill="#e1fafa" id="SvgjsPath1285"></path>
  </g>
  <g id="SvgjsG1284">
   <path d="m338.5,412.5c0,3.33 0,6.67 0,10c17,0 34,0 51,0c-13.16,0.83 -26.49,1.33 -40,1.5c1.67,0.33 3.33,0.67 5,1c-2.31,0.5 -4.64,0.66 -7,0.5c0,1 0,2 0,3c-5.29,0.18 -5.29,0.68 0,1.5c-1.54,0.29 -2.88,0.96 -4,2c0.33,0.33 0.67,0.67 1,1c4.59,0.23 4.92,1.9 1,5c7,0.33 14,0.67 21,1c2.01,0.08 3.01,0.58 3,1.5c-10.67,0 -21.33,0 -32,0c-0.33,10.51 0.01,20.85 1,31c0.31,10.45 0.64,21.12 1,32c9.33,0 18.67,0 28,0c-0.17,-8.67 0,-17.34 0.5,-26c0.17,8.84 0.67,17.51 1.5,26c10.67,0 21.33,0 32,0c-21.33,0.67 -42.67,1.33 -64,2c0,10 0,20 0,30c-1.54,-6.43 -2.37,-13.1 -2.5,-20c-0.5,0.5 -1,1 -1.5,1.5c0.87,2.03 1.21,4.37 1,7c-0.69,1.07 -1.19,2.23 -1.5,3.5c-0.33,-4 -0.67,-8 -1,-12c-1.62,-1.16 -1.62,-2.49 0,-4c0.33,0.33 0.67,0.67 1,1c0.57,-2.67 1.07,-5.33 1.5,-8c-10.51,0.33 -20.85,-0.01 -31,-1c11.33,0 22.67,0 34,0c0,-10.33 0,-20.67 0,-31c-1.33,0 -2.67,0 -4,0c-9.28,-1.81 -18.95,-2.64 -29,-2.5c-1.33,-0.67 -2.33,-1.67 -3,-3c1.11,-1.45 2.11,-2.78 3,-4c-2.43,-1.09 -2.1,-1.59 1,-1.5c-0.15,-1.05 0.02,-2.05 0.5,-3c1.08,0.79 2.25,1.46 3.5,2c3.5,-1.19 5.5,0.15 6,4c1.05,-0.15 2.05,0.02 3,0.5c-1.33,0.33 -2.67,0.67 -4,1c4.25,0.2 8.42,0.7 12.5,1.5c1.4,-0.73 2.9,-1.23 4.5,-1.5c0.79,-11.08 0.79,-20.42 0,-28c1.78,-2.15 3.28,-1.99 4.5,0.5c0.83,-0.83 1.67,-1.67 2.5,-2.5c-1.94,-1.82 -2.61,-3.82 -2,-6c1.33,-0.33 2.67,-0.67 4,-1c-2,-0.33 -4,-0.67 -6,-1c1.8,-0.32 2.13,-0.98 1,-2c1.24,0.08 2.24,-0.09 3,-0.5c-1.54,-3.66 -2.54,-7.49 -3,-11.5c-3.99,-0.5 -7.99,-0.67 -12,-0.5c0.32,4.86 -0.01,9.53 -1,14c0,-5 0,-10 0,-15c5.33,0 10.67,0 16,0z" fill="#1c1c2b" id="SvgjsPath1283"></path>
  </g>
  <g id="SvgjsG1282">
   <path d="m312.5,294.5c0,8.67 0,17.33 0,26c-2.67,0 -5.33,0 -8,0c-4.33,0 -8.67,0 -13,0c0,-8.67 0,-17.33 0,-26c7,0 14,0 21,0z" fill="#334c6a" id="SvgjsPath1281"></path>
  </g>
  <g id="SvgjsG1280">
   <path d="m333.5,472.5c1.33,0 2.67,0 4,0c0,10.33 0,20.67 0,31c-11.33,0 -22.67,0 -34,0c0,-10.33 0,-20.67 0,-31c10,0 20,0 30,0z" fill="#dff7f9" id="SvgjsPath1279"></path>
  </g>
  <g id="SvgjsG1278">
   <path d="m401.5,503.5c-10.67,0 -21.33,0 -32,0c0,-10.33 0,-20.67 0,-31c10.67,0 21.33,0 32,0c0,10.33 0,20.67 0,31z" fill="#e2f9fa" id="SvgjsPath1277"></path>
  </g>
  <g id="SvgjsG1276">
   <path d="m641.5,499.5c0,1.33 0,2.67 0,4c-2.67,0 -5.33,0 -8,0c0.33,-8.52 -0.01,-16.85 -1,-25c-6.67,0 -13.33,0 -20,0c0,8.33 0,16.67 0,25c-2.33,0 -4.67,0 -7,0c0,-9.67 0,-19.33 0,-29c11.62,-1.98 23.62,-2.65 36,-2c0,9 0,18 0,27z" fill="#e5f4f6" id="SvgjsPath1275"></path>
  </g>
  <g id="SvgjsG1274">
   <path d="m652.5,471.5c7.67,0 15.33,0 23,0c-0.33,10.85 0.01,21.51 1,32c7.15,0.83 14.49,1.33 22,1.5c-6.99,0.5 -13.99,0.67 -21,0.5c0.17,10.01 0,20.01 -0.5,30c-0.17,-9.18 -0.67,-18.18 -1.5,-27c0,-1.33 0,-2.67 0,-4c-10,0 -20,0 -30,0c9.49,-0.99 19.15,-1.33 29,-1c0,-10.33 0,-20.67 0,-31c-7.52,0.32 -14.85,-0.01 -22,-1z" fill="#0b0d1c" id="SvgjsPath1273"></path>
  </g>
  <g id="SvgjsG1272">
   <path d="m704.5,503.5c0,-8.33 0,-16.67 0,-25c-6.67,0 -13.33,0 -20,0c0,8.33 0,16.67 0,25c-2.67,0 -5.33,0 -8,0c0,-10.33 0,-20.67 0,-31c11.67,0 23.33,0 35,0c0,10.33 0,20.67 0,31c-2.33,0 -4.67,0 -7,0z" fill="#ebf7f9" id="SvgjsPath1271"></path>
  </g>
  <g id="SvgjsG1270">
   <path d="m704.5,503.5c-6.67,0 -13.33,0 -20,0c0,-8.33 0,-16.67 0,-25c6.67,0 13.33,0 20,0c0,8.33 0,16.67 0,25z" fill="#f995a1" id="SvgjsPath1269"></path>
  </g>
  <g id="SvgjsG1268">
   <path d="m632.5,478.5c0,8 0,16 0,24c-5.53,-0.32 -10.86,0.01 -16,1c-1.33,0 -2.67,0 -4,0c0,-8.33 0,-16.67 0,-25c6.67,0 13.33,0 20,0z" fill="#f993a0" id="SvgjsPath1267"></path>
  </g>
  <g id="SvgjsG1266">
   <path d="m632.5,478.5c0.99,8.15 1.33,16.48 1,25c-5.67,0 -11.33,0 -17,0c5.14,-0.99 10.47,-1.32 16,-1c0,-8 0,-16 0,-24z" fill="#e7abae" id="SvgjsPath1265"></path>
  </g>
  <g id="SvgjsG1264">
   <path d="m430.5,505.5c50.67,0 101.33,0 152,0c0,4.67 0,9.33 0,14c-14.67,0 -29.33,0 -44,0c-36,0 -72,0 -108,0c0,-4.67 0,-9.33 0,-14z" fill="#435a78" id="SvgjsPath1263"></path>
  </g>
  <g id="SvgjsG1262">
   <path d="m337.5,505.5c10.67,0 21.33,0 32,0c0,10.33 0,20.67 0,31c-10.85,0.33 -21.51,-0.01 -32,-1c0,-10 0,-20 0,-30z" fill="#e0f8f8" id="SvgjsPath1261"></path>
  </g>
  <g id="SvgjsG1260">
   <path d="m642.5,505.5c10.67,0 21.33,0 32,0c0,10 0,20 0,30c-10.67,0 -21.33,0 -32,0c0,-10 0,-20 0,-30z" fill="#e0fbfb" id="SvgjsPath1259"></path>
  </g>
  <g id="SvgjsG1258">
   <path d="m283.5,461.5c0,24.33 0,48.67 0,73c-1.33,0 -2.67,0 -4,0c0.71,-0.9 1.71,-1.24 3,-1c-0.33,-24.17 0,-48.17 1,-72z" fill="#c1cedb" id="SvgjsPath1257"></path>
  </g>
  <g id="SvgjsG1256">
   <path d="m673.5,440.5c-10.33,0 -20.67,0 -31,0c0,10.33 0,20.67 0,31c1.06,9.64 1.23,19.31 0.5,29c-0.38,-0.56 -0.88,-0.89 -1.5,-1c0,-9 0,-18 0,-27c-12.38,-0.65 -24.38,0.02 -36,2c-0.62,0.11 -1.12,0.44 -1.5,1c-0.63,-2.13 -0.3,-4.13 1,-6c3.48,-1.32 6.65,-3.16 9.5,-5.5c-1.24,-0.46 -2.08,0.04 -2.5,1.5c-0.75,-0.63 -1.58,-1.13 -2.5,-1.5c0.84,-1.01 1.17,-2.18 1,-3.5c-5.13,-1.11 -5.13,-1.78 0,-2c0,-1 0,-2 0,-3c-5.34,-0.17 -10.68,0 -16,0.5c-0.92,0.37 -1.75,0.87 -2.5,1.5c-0.24,-5.37 -0.07,-10.2 0.5,-14.5c-0.67,-0.33 -1.33,-0.67 -2,-1c1.1,-1.13 0.77,-1.96 -1,-2.5c-1.35,1.02 -2.35,2.35 -3,4c-1.57,-0.81 -3.24,-1.14 -5,-1c0.16,3.71 0.16,7.21 0,10.5c1.94,1.82 2.61,3.82 2,6c-0.67,2.67 -1.33,5.33 -2,8c0.05,6.74 0.05,13.58 0,20.5c1.59,8.57 2.59,17.07 3,25.5c-0.17,2.83 -0.33,5.67 -0.5,8.5c-1.07,0.69 -2.23,1.19 -3.5,1.5c3.59,2.14 7.26,4.3 11,6.5c3.21,1.29 6.38,1.29 9.5,0c1.58,1.36 3.42,2.03 5.5,2c0.07,3.41 1.23,6.41 3.5,9c0.65,-1.2 1.15,-1.2 1.5,0c-0.89,3.17 0.45,4.84 4,5c0,1 0,2 0,3c1.64,0.21 3.14,-0.12 4.5,-1c1.02,1.39 1.85,2.89 2.5,4.5c-0.82,7.42 -1.32,14.92 -1.5,22.5c-0.5,0.5 -1,1 -1.5,1.5c-3.71,0.17 -7.38,0.67 -11,1.5c-0.64,1.23 -0.81,2.57 -0.5,4c-1.36,1.42 -2.86,2.26 -4.5,2.5c1.08,2.83 2.25,2.99 3.5,0.5c1.74,1.74 3.74,3.07 6,4c1.15,-0.92 2.15,-0.92 3,0c0.33,-0.67 0.67,-1.33 1,-2c0.16,2.18 1,4.01 2.5,5.5c-2,0.33 -4,0.67 -6,1c1.16,1.62 1.99,3.46 2.5,5.5c1.06,-0.6 2.23,-0.93 3.5,-1c3.51,0.01 5.01,1.67 4.5,5c-1.62,-0.91 -2.46,-0.25 -2.5,2c-3.67,0 -7.33,0 -11,0c0,5.33 0,10.67 0,16c-18.33,0 -36.67,0 -55,0c0,-5.33 0,-10.67 0,-16c-33,0 -66,0 -99,0c0,5.33 0,10.67 0,16c-18,0 -36,0 -54,0c0,-1.33 0,-2.67 0,-4c1.25,0.08 2.08,0.74 2.5,2c0.49,-1.63 0.66,-3.3 0.5,-5c3.05,1.1 6.22,1.77 9.5,2c2.59,0.12 4.92,-0.54 7,-2c1.56,0.85 2.56,0.18 3,-2c0.31,0.81 0.81,1.48 1.5,2c1.2,-0.35 1.2,-0.85 0,-1.5c1.58,-0.44 2.91,-1.27 4,-2.5c0.33,0.67 0.67,1.33 1,2c0.85,-1.02 1.85,-1.86 3,-2.5c-0.97,-1.76 -2.14,-2.26 -3.5,-1.5c-0.67,-1.33 -1.33,-2.67 -2,-4c-0.42,1.17 -1.08,2.17 -2,3c-2.78,-5.47 -6.95,-7.47 -12.5,-6c0.03,2.19 0.2,4.53 0.5,7c-0.67,-0.67 -1.33,-1.33 -2,-2c-2.16,3.67 -2.99,3.01 -2.5,-2c1,0 2,0 3,0c0,-1.33 0,-2.67 0,-4c-1.37,0.16 -2.71,-0.01 -4,-0.5c-1.33,-0.67 -1.33,-1.33 0,-2c-1.76,-0.2 -3.42,-0.7 -5,-1.5c-1.13,-4.13 -3.8,-5.8 -8,-5c-0.29,-3.61 0.04,-7.11 1,-10.5c-1.35,-1.62 -3.02,-2.78 -5,-3.5c2.13,-0.67 4.13,-1.34 6,-2c3.33,0 6.67,0 10,0c0,2.33 0,4.67 0,7c1.67,0 3.33,0 5,0c0,2.67 0,5.33 0,8c11.33,0 22.67,0 34,0c0,-2.67 0,-5.33 0,-8c1.33,0 2.67,0 4,0c0,-2.33 0,-4.67 0,-7c4.67,0 9.33,0 14,0c0,-8 0,-16 0,-24c-5.33,0 -10.67,0 -16,0c0.32,-5.86 -0.01,-11.52 -1,-17c-12.33,0 -24.67,0 -37,0c4.82,-0.83 9.82,-1.33 15,-1.5c-2.31,-1.87 -4.98,-2.87 -8,-3c2.33,-0.33 4.67,-0.67 7,-1c1.77,-1.44 3.77,-2.44 6,-3c-3.65,-1.48 -3.32,-2.81 1,-4c7.43,-0.7 14.76,-0.2 22,1.5c11.92,-2.17 23.92,-2.5 36,-1c-0.9,0.17 -1.9,0.5 -3,1c3.04,1.16 6.04,1 9,-0.5c-0.67,-0.33 -1.33,-0.67 -2,-1c14.84,-0.17 29.51,-0.67 44,-1.5c14.67,0 29.33,0 44,0c0,-4.67 0,-9.33 0,-14c-50.67,0 -101.33,0 -152,0c-0.17,-12.67 0,-25.34 0.5,-38c0.15,9.38 0.81,18.72 2,28c0.32,-1.8 0.98,-2.13 2,-1c3.86,-3.57 7.2,-3.9 10,-1c5.64,-0.6 10.98,-1.94 16,-4c1,0.33 2,0.67 3,1c1.4,-0.73 2.9,-1.23 4.5,-1.5c1.38,-1.32 1.71,-2.66 1,-4c1.27,-0.31 2.43,-0.81 3.5,-1.5c10.75,-0.48 22.08,-0.48 34,0c1.51,0.76 2.85,1.76 4,3c1.02,-1.13 1.68,-0.8 2,1c0.22,-1.44 0.72,-2.77 1.5,-4c0.92,-1.14 1.76,-1.14 2.5,0c1.31,-2.39 2.31,-2.39 3,0c1.02,-2.53 2.18,-2.53 3.5,0c0.93,-1.83 2.09,-2.17 3.5,-1c0.67,-2.67 1.33,-2.67 2,0c3.17,-1.7 6.67,-2.54 10.5,-2.5c2.28,-3.06 4.78,-3.23 7.5,-0.5c0.33,-0.67 0.67,-1.33 1,-2c0.69,2.39 1.69,2.39 3,0c0.97,0.7 2.14,0.7 3.5,0c3.25,1.17 6.41,2.5 9.5,4c0.22,-3.44 1.22,-3.78 3,-1c0.91,-3.69 1.58,-3.35 2,1c0.5,-2.89 1.67,-5.39 3.5,-7.5c-0.81,-0.31 -1.48,-0.81 -2,-1.5c2.32,-1.44 2.99,-3.27 2,-5.5c2.85,-2.82 2.51,-5.16 -1,-7c1.47,-0.71 2.14,-1.88 2,-3.5c-1.05,0.15 -2.05,-0.02 -3,-0.5c3.86,-0.57 3.86,-1.4 0,-2.5c1.46,0.18 2.79,-0.66 4,-2.5c-0.47,-1.3 -0.47,-2.8 0,-4.5c-1.37,0.16 -2.71,-0.01 -4,-0.5c0.33,-0.33 0.67,-0.67 1,-1c-0.75,-1.49 -1.59,-1.65 -2.5,-0.5c-0.87,-2.01 -2.21,-2.01 -4,0c-1.39,-0.93 -2.89,-0.93 -4.5,0c-1.69,-0.26 -3.19,-0.93 -4.5,-2c-1.02,1.13 -1.68,0.8 -2,-1c-2.35,0.39 -4.85,0.39 -7.5,0c0,1 0,2 0,3c-4.54,0.17 -4.87,-0.5 -1,-2c-0.33,-0.33 -0.67,-0.67 -1,-1c-2.9,0.51 -6.07,0.51 -9.5,0c-1.44,0.76 -2.94,1.43 -4.5,2c-3.16,-1.66 -5.99,-1.32 -8.5,1c-0.31,-0.81 -0.81,-1.48 -1.5,-2c-1.84,0.69 -3.67,0.36 -5.5,-1c-11.73,-0.04 -23.57,0.13 -35.5,0.5c-1.27,0.31 -2.43,0.81 -3.5,1.5c-0.33,-0.67 -0.67,-1.33 -1,-2c-4.22,-0.24 -8.55,0.1 -13,1c-1.42,-0.58 -2.25,-1.58 -2.5,-3c40.5,0.33 80.84,0 121,-1c0,-0.33 0,-0.67 0,-1c0.99,-4.47 1.32,-9.14 1,-14c-49.67,0 -99.33,0 -149,0c2.2,-1 5.2,-1.34 9,-1c19.01,0.33 38.01,0 57,-1c-2.95,-0.82 -5.95,-1.32 -9,-1.5c1.33,-0.67 1.33,-1.33 0,-2c0.92,-0.37 1.75,-0.87 2.5,-1.5c1.76,2.16 3.6,2.33 5.5,0.5c-1.71,-0.78 -2.71,-2.11 -3,-4c0.16,-3.32 0.83,-6.82 2,-10.5c-0.57,-8.81 -1.24,-18.15 -2,-28c0.05,-1.6 0.38,-3.1 1,-4.5c7.11,-0.92 14.11,-0.59 21,1c-1.33,0.67 -2.33,1.67 -3,3c0.78,1.07 0.61,2.24 -0.5,3.5c-1.84,-1.33 -2.34,-1.17 -1.5,0.5c-1.5,2.17 -2.67,2 -3.5,-0.5c-0.33,1.33 -0.67,2.67 -1,4c-0.97,-2.38 -1.64,-2.04 -2,1c-0.15,5.31 -0.99,10.15 -2.5,14.5c1.49,1.37 2.99,1.54 4.5,0.5c0.49,1.63 0.66,3.3 0.5,5c-1,0 -2,0 -3,0c-0.19,4.31 1.65,7.31 5.5,9c0.92,-0.43 1.75,-0.76 2.5,-1c-0.75,-1.92 -0.75,-3.92 0,-6c-1,0 -2,0 -3,0c-0.42,-4.59 -0.75,-9.42 -1,-14.5c-0.12,-3.36 0.38,-6.52 1.5,-9.5c1.1,1.89 2.43,2.56 4,2c0.29,6.35 0.79,12.69 1.5,19c-0.6,3.51 -1.27,7.01 -2,10.5c0.34,1.37 1.01,2.53 2,3.5c-0.21,0.59 -0.54,1.09 -1,1.5c1.24,0.46 2.08,-0.04 2.5,-1.5c0.5,1 1,2 1.5,3c-1.33,0.03 -2.67,0.86 -4,2.5c2.33,0.67 4.67,0.67 7,0c-0.67,-0.33 -1.33,-0.67 -2,-1c2.06,-1.49 3.39,-3.49 4,-6c-0.33,-0.33 -0.67,-0.67 -1,-1c3,-0.17 6,-0.33 9,-0.5c3.44,0.05 6.61,0.72 9.5,2c16.43,-1.16 32.93,-1.32 49.5,-0.5c-2.67,0.67 -2.67,1.33 0,2c-2.67,0.67 -2.67,1.33 0,2c-0.16,1.12 -0.5,2.28 -1,3.5c0.52,0.69 1.19,1.19 2,1.5c-1.36,3.98 -0.53,4.82 2.5,2.5c2.13,-0.85 4.13,-1.19 6,-1c0.33,0.67 0.67,1.33 1,2c1.98,-0.45 4.32,-0.79 7,-1c1.98,0.13 3.65,0.8 5,2c0.91,-0.83 1.58,-1.83 2,-3c0.5,1 1,2 1.5,3c-1.55,3.81 -2.22,7.81 -2,12c0.09,3.53 0.76,6.86 2,10c-0.88,1.98 -0.72,3.98 0.5,6c0.33,-1 0.67,-2 1,-3c0.34,2.54 0.84,5.04 1.5,7.5c-1.64,1.65 -1.31,2.65 1,3c-1.33,0.67 -2.33,1.67 -3,3c3.18,0.45 6.51,1.28 10,2.5c3.07,-0.55 6.07,-1.21 9,-2c0.28,-2.38 0.28,-4.54 0,-6.5c1.6,-1.79 2.43,-3.95 2.5,-6.5c0.33,0.33 0.67,0.67 1,1c0.63,-5.25 1.47,-10.41 2.5,-15.5c5.17,-0.17 10.33,-0.33 15.5,-0.5c5.55,0 10.71,0.67 15.5,2z" fill="#1e1a2c" id="SvgjsPath1255"></path>
  </g>
  <g id="SvgjsG1254">
   <path d="m596.5,430.5c5.33,0 10.67,0 16,0c0,7.67 0,15.33 0,23c-5.33,0 -10.67,0 -16,0c0,-7.67 0,-15.33 0,-23z" fill="#e6f9fb" id="SvgjsPath1253"></path>
  </g>
  <g id="SvgjsG1252">
   <path d="m642.5,505.5c0.71,-0.9 1.71,-1.24 3,-1c10,0 20,0 30,0c0,1.33 0,2.67 0,4c0,9.33 0,18.67 0,28c-11.18,0.33 -22.18,0 -33,-1c10.67,0 21.33,0 32,0c0,-10 0,-20 0,-30c-10.67,0 -21.33,0 -32,0z" fill="#91a3b2" id="SvgjsPath1251"></path>
  </g>
  <g id="SvgjsG1250">
   <path d="m603.5,550.5c0,7 0,14 0,21c-13,0 -26,0 -39,0c0,-7 0,-14 0,-21c0,-5.67 0,-11.33 0,-17c13,0 26,0 39,0c0,5.67 0,11.33 0,17z" fill="#e6f9fb" id="SvgjsPath1249"></path>
  </g>
  <g id="SvgjsG1248">
   <path d="m409.5,533.5c0,12.67 0,25.33 0,38c13,0 26,0 39,0c0,-12.67 0,-25.33 0,-38c0.99,5.48 1.32,11.14 1,17c5.33,0 10.67,0 16,0c0,8 0,16 0,24c-4.67,0 -9.33,0 -14,0c0,2.33 0,4.67 0,7c-1.33,0 -2.67,0 -4,0c0,2.67 0,5.33 0,8c-11.33,0 -22.67,0 -34,0c0,-2.67 0,-5.33 0,-8c-1.67,0 -3.33,0 -5,0c0,-2.33 0,-4.67 0,-7c-3.33,0 -6.67,0 -10,0c-1.67,0 -3.33,0 -5,0c0,-8.33 0,-16.67 0,-25c5,0 10,0 15,0c-0.32,-5.53 0.01,-10.86 1,-16z" fill="#4c6985" id="SvgjsPath1247"></path>
  </g>
  <g id="SvgjsG1246">
   <path d="m409.5,533.5c0.67,0 1.33,0 2,0c12.33,0 24.67,0 37,0c0,12.67 0,25.33 0,38c-13,0 -26,0 -39,0c0,-12.67 0,-25.33 0,-38z" fill="#e8fbfd" id="SvgjsPath1245"></path>
  </g>
  <g id="SvgjsG1244">
   <path d="m496.5,551.5c6.67,0 13.33,0 20,0c0,7 0,14 0,21c-6.67,0 -13.33,0 -20,0c0,-7 0,-14 0,-21z" fill="#e5fafb" id="SvgjsPath1243"></path>
  </g>
  <g id="SvgjsG1242">
   <path d="m275.5,534.5c0.06,17.61 -0.28,35.28 -1,53c-4.67,0 -9.33,0 -14,0c0.17,28.67 0,57.34 -0.5,86c-0.28,0.92 -0.78,1.58 -1.5,2c0,-29.67 0,-59.33 0,-89c5,0 10,0 15,0c-0.65,-17.7 0.01,-35.03 2,-52z" fill="#0e0e1c" id="SvgjsPath1241"></path>
  </g>
  <g id="SvgjsG1240">
   <path d="m564.5,550.5c0,7 0,14 0,21c13,0 26,0 39,0c0,-7 0,-14 0,-21c5.27,-0.9 10.61,-1.23 16,-1c0,8.33 0,16.67 0,25c-5.04,-0.33 -10.04,0.01 -15,1c0.81,1.57 1.14,3.24 1,5c-2.33,0 -4.67,0 -7,0c0,3 0,6 0,9c-11,0 -22,0 -33,0c0.31,-2.75 -0.02,-5.41 -1,-8c-1.24,0.75 -2.57,1.08 -4,1c0,-2.67 0,-5.33 0,-8c-4,0 -8,0 -12,0c0,-8 0,-16 0,-24c5.33,0 10.67,0 16,0z" fill="#486481" id="SvgjsPath1239"></path>
  </g>
  <g id="SvgjsG1238">
   <path d="m275.5,617.5c5,0 10,0 15,0c0,4.67 0,9.33 0,14c-5,0 -10,0 -15,0c0,-4.67 0,-9.33 0,-14z" fill="#496182" id="SvgjsPath1237"></path>
  </g>
  <g id="SvgjsG1236">
   <path d="m722.5,617.5c5.33,0 10.67,0 16,0c0,5 0,10 0,15c-5.01,0.17 -10.01,0 -15,-0.5c-0.97,-4.74 -1.3,-9.57 -1,-14.5z" fill="#46617d" id="SvgjsPath1235"></path>
  </g>
  <g id="SvgjsG1234">
   <path d="m290.5,632.5c5,0 10,0 15,0c0,5 0,10 0,15c-5,0 -10,0 -15,0c0,-5 0,-10 0,-15z" fill="#445f80" id="SvgjsPath1233"></path>
  </g>
  <g id="SvgjsG1232">
   <path d="m401.5,604.5c-3.67,0 -7.33,0 -11,0c0,5.33 0,10.67 0,16c-4,0 -8,0 -12,0c0,13.67 0,27.33 0,41c-6,0 -12,0 -18,0c0.17,6.67 0,13.34 -0.5,20c-5.07,-0.97 -10.24,-1.3 -15.5,-1c-1.67,0 -3.33,0 -5,0c6.48,-0.99 13.15,-1.32 20,-1c0,-6.33 0,-12.67 0,-19c5.67,0 11.33,0 17,0c0.16,-7.05 -0.34,-14.05 -1.5,-21c-0.36,-3.04 -1.03,-3.38 -2,-1c-0.79,-3.92 -0.63,-7.76 0.5,-11.5c-2.95,-3.47 -3.12,-7.3 -0.5,-11.5c1.62,1.04 1.78,2.2 0.5,3.5c1.88,-0.51 3.71,-0.34 5.5,0.5c-0.62,-1.6 -0.28,-2.93 1,-4c1.78,0.98 3.44,0.65 5,-1c0.36,-4.43 0.36,-8.76 0,-13c5.64,0.71 11.14,1.71 16.5,3z" fill="#1a1926" id="SvgjsPath1231"></path>
  </g>
  <g id="SvgjsG1230">
   <path d="m305.5,648.5c11.33,0 22.67,0 34,0c0.3,4.93 -0.03,9.76 -1,14.5c-11,0.5 -22,0.67 -33,0.5c0,-5 0,-10 0,-15z" fill="#465f7b" id="SvgjsPath1229"></path>
  </g>
  <g id="SvgjsG1228">
   <path d="m740.5,539.5c0,12.33 0,24.67 0,37c0,3.33 0,6.67 0,10c4.67,0 9.33,0 14,0c0,31 0,62 0,93c-5,0 -10,0 -15,0c0,4 0,8 0,12c-0.99,-4.13 -1.32,-8.47 -1,-13c5,0 10,0 15,0c0,-30.33 0,-60.67 0,-91c-4.93,0.3 -9.76,-0.03 -14.5,-1c-0.06,-15.83 0.44,-31.5 1.5,-47z" fill="#0a0f15" id="SvgjsPath1227"></path>
  </g>
  <g id="SvgjsG1226">
   <path d="m339.5,680.5c1.67,0 3.33,0 5,0c-1.07,0.93 -2.4,1.27 -4,1c0.33,9.18 -0.01,18.18 -1,27c0,-9.33 0,-18.67 0,-28z" fill="#253336" id="SvgjsPath1225"></path>
  </g>
  <g id="SvgjsG1224">
   <path d="m273.5,693.5c5.67,0 11.33,0 17,0c0,5 0,10 0,15c-0.99,-4.47 -1.32,-9.14 -1,-14c-5.53,0.32 -10.86,-0.01 -16,-1z" fill="#99aabd" id="SvgjsPath1223"></path>
  </g>
  <g id="SvgjsG1222">
   <path d="m397.5,777.5c0.33,0 0.67,0 1,0c0,5.67 0,11.33 0,17c-1.67,0 -3.33,0 -5,0c-4.67,0 -9.33,0 -14,0c0,-4.67 0,-9.33 0,-14c0,-1 0,-2 0,-3c6,0 12,0 18,0z" fill="#b2d2e3" id="SvgjsPath1221"></path>
  </g>
  <g id="SvgjsG1220">
   <path d="m398.5,777.5c9.33,0 18.67,0 28,0c62.33,0 124.67,0 187,0c0,5.67 0,11.33 0,17c-15.67,0 -31.33,0 -47,0c-43,0 -86,0 -129,0c-13,0 -26,0 -39,0c0,-5.67 0,-11.33 0,-17z" fill="#8fb1c6" id="SvgjsPath1219"></path>
  </g>
  <g id="SvgjsG1218">
   <path d="m651.5,777.5c24,0 48,0 72,0c0,5.67 0,11.33 0,17c-24,0 -48,0 -72,0c0,-5.67 0,-11.33 0,-17z" fill="#91b3ca" id="SvgjsPath1217"></path>
  </g>
  <g id="SvgjsG1216">
   <path d="m674.5,648.5c10.49,-0.99 21.15,-1.33 32,-1c0,5.33 0,10.67 0,16c-10.85,0.33 -21.51,-0.01 -32,-1c10.33,0 20.67,0 31,0c0,-4.67 0,-9.33 0,-14c-10.33,0 -20.67,0 -31,0z" fill="#323b53" id="SvgjsPath1215"></path>
  </g>
  <g id="SvgjsG1214">
   <path d="m674.5,648.5c10.33,0 20.67,0 31,0c0,4.67 0,9.33 0,14c-10.33,0 -20.67,0 -31,0c0,-4.67 0,-9.33 0,-14z" fill="#47617d" id="SvgjsPath1213"></path>
  </g>
  <g id="SvgjsG1212">
   <path d="m707.5,632.5c5,0 10,0 15,0c0,5 0,10 0,15c-5,0 -10,0 -15,0c0,-5 0,-10 0,-15z" fill="#4a647e" id="SvgjsPath1211"></path>
  </g>
  <g id="SvgjsG1210">
   <path d="m314.5,777.5c15.67,0 31.33,0 47,0c0,5.67 0,11.33 0,17c-24,0 -48,0 -72,0c0,-5 0,-10 0,-15c7.93,-1.97 16.27,-2.63 25,-2z" fill="#92b3ca" id="SvgjsPath1209"></path>
  </g>
 </g>
</svg><style>@media (prefers-color-scheme: light) { :root { filter: none; } }
@media (prefers-color-scheme: dark) { :root { filter: none; } }
</style></svg>